<svg width="20" height="19" viewBox="0 0 20 19" fill="none" xmlns="http://www.w3.org/2000/svg">
<path d="M2.5 4.75C3.875 4.75 5 3.68125 5 2.375C5 1.06875 3.875 0 2.5 0C1.125 0 0 1.06875 0 2.375C0 3.68125 1.125 4.75 2.5 4.75ZM10 19C11.375 19 12.5 17.9312 12.5 16.625C12.5 15.3188 11.375 14.25 10 14.25C8.625 14.25 7.5 15.3188 7.5 16.625C7.5 17.9312 8.625 19 10 19ZM2.5 19C3.875 19 5 17.9312 5 16.625C5 15.3188 3.875 14.25 2.5 14.25C1.125 14.25 0 15.3188 0 16.625C0 17.9312 1.125 19 2.5 19ZM2.5 11.875C3.875 11.875 5 10.8062 5 9.5C5 8.19375 3.875 7.125 2.5 7.125C1.125 7.125 0 8.19375 0 9.5C0 10.8062 1.125 11.875 2.5 11.875ZM10 11.875C11.375 11.875 12.5 10.8062 12.5 9.5C12.5 8.19375 11.375 7.125 10 7.125C8.625 7.125 7.5 8.19375 7.5 9.5C7.5 10.8062 8.625 11.875 10 11.875ZM15 2.375C15 3.68125 16.125 4.75 17.5 4.75C18.875 4.75 20 3.68125 20 2.375C20 1.06875 18.875 0 17.5 0C16.125 0 15 1.06875 15 2.375ZM10 4.75C11.375 4.75 12.5 3.68125 12.5 2.375C12.5 1.06875 11.375 0 10 0C8.625 0 7.5 1.06875 7.5 2.375C7.5 3.68125 8.625 4.75 10 4.75ZM17.5 11.875C18.875 11.875 20 10.8062 20 9.5C20 8.19375 18.875 7.125 17.5 7.125C16.125 7.125 15 8.19375 15 9.5C15 10.8062 16.125 11.875 17.5 11.875ZM17.5 19C18.875 19 20 17.9312 20 16.625C20 15.3188 18.875 14.25 17.5 14.25C16.125 14.25 15 15.3188 15 16.625C15 17.9312 16.125 19 17.5 19Z" fill="black"/>
</svg>
