<svg width="20" height="22" viewBox="0 0 20 22" fill="none" xmlns="http://www.w3.org/2000/svg">
<path d="M15 15.5834V10.0834C15 7.26919 13.6416 4.91335 11.25 4.29002V3.66669C11.25 2.90585 10.6916 2.29169 9.99998 2.29169C9.30831 2.29169 8.74998 2.90585 8.74998 3.66669V4.29002C6.36665 4.91335 4.99998 7.26002 4.99998 10.0834V15.5834H3.33331V17.4167H16.6666V15.5834H15ZM13.3333 15.5834H6.66665V10.0834C6.66665 7.81002 7.92498 5.95835 9.99998 5.95835C12.075 5.95835 13.3333 7.81002 13.3333 10.0834V15.5834ZM9.99998 20.1667C10.9166 20.1667 11.6666 19.3417 11.6666 18.3334H8.33331C8.33331 19.3417 9.08331 20.1667 9.99998 20.1667Z" fill="black"/>
</svg>
