<svg width="28" height="27" viewBox="0 0 28 27" fill="none" xmlns="http://www.w3.org/2000/svg">
<path d="M14 16.875C15.9367 16.875 17.5 15.4012 17.5 13.5337V5.63625C17.5 3.76875 15.9367 2.25 14 2.25C12.0633 2.25 10.5 3.7575 10.5 5.63625V13.5337C10.5 15.4012 12.0633 16.875 14 16.875Z" fill="#4285F4"/>
<path d="M12.8333 20.34H15.1666V24.75H12.8333V20.34Z" fill="#34A853"/>
<path d="M8.22492 18.9788C6.74325 17.4825 5.83325 15.795 5.83325 13.5H8.16659C8.16659 15.1313 8.81992 16.2225 9.88159 17.3025V17.6625L8.53992 18.99L8.22492 18.9788Z" fill="#FBBC05"/>
<path d="M14.0001 19.0462C13.2327 19.0485 12.4724 18.8955 11.7635 18.5961C11.0545 18.2968 10.411 17.8571 9.8701 17.3025L8.2251 18.9788C9.6951 20.4863 11.7484 21.375 14.0001 21.375C18.5151 21.375 22.1551 18.09 22.1551 13.5H19.8334C19.8334 16.785 17.2201 19.0462 14.0001 19.0462Z" fill="#EA4335"/>
</svg>
