<svg width="27" height="27" viewBox="0 0 27 27" fill="none" xmlns="http://www.w3.org/2000/svg">
<g clip-path="url(#clip0_6_120)">
<path d="M20.2598 22.5C21.5024 22.5 22.5098 21.4926 22.5098 20.25C22.5098 19.0074 21.5024 18 20.2598 18C19.0171 18 18.0098 19.0074 18.0098 20.25C18.0098 21.4926 19.0171 22.5 20.2598 22.5Z" fill="#34A853"/>
<path d="M13.5098 18C15.3737 18 16.8848 16.489 16.8848 14.625C16.8848 12.761 15.3737 11.25 13.5098 11.25C11.6458 11.25 10.1348 12.761 10.1348 14.625C10.1348 16.489 11.6458 18 13.5098 18Z" fill="#4285F4"/>
<path d="M3.375 19.0125C3.375 21.5592 5.44078 23.625 7.9875 23.625H13.5V21.375L7.86094 21.3609C6.62344 21.3609 5.625 20.2092 5.625 18.8437V16.3125H3.375V19.0125Z" fill="#EA4335"/>
<path d="M23.625 10.2375C23.625 7.69078 21.5592 5.625 19.0125 5.625H16.3125L19.125 7.875C20.3625 7.875 21.375 9.04078 21.375 10.4062V14.625H23.625V10.2375Z" fill="#FBBC05"/>
<path d="M15.75 3.375H11.25L9.5625 5.625H7.9875C5.44078 5.625 3.375 7.69078 3.375 10.2375V12.9375H5.625V10.4062C5.625 9.04078 6.6375 7.875 7.875 7.875H19.125L15.75 3.375Z" fill="#4285F4"/>
</g>
<defs>
<clipPath id="clip0_6_120">
<rect width="27" height="27" fill="white"/>
</clipPath>
</defs>
</svg>
